<svg width="138px" height="32px" viewBox="0 0 1380 320" version="1.1" xmlns="http://www.w3.org/2000/svg" xmlns:xlink="http://www.w3.org/1999/xlink">
    <g id="Page-1" stroke="none" stroke-width="1" fill="none" fill-rule="evenodd">
        <g id="button">
            <rect id="Background" fill="#1966D2" x="0" y="0" width="1380" height="320" rx="40"></rect>
            <text id="in-Gitpod" opacity="0.703985305" font-family="Helvetica" font-size="140" font-weight="normal" fill="#FFFFFF">
                <tspan x="735" y="210">in Gitpod</tspan>
            </text>
            <text id="Code" font-family="Helvetica" font-size="140" font-weight="normal" fill="#FFFFFF">
                <tspan x="350" y="210">Open</tspan>
            </text>
            <g id="logo" fill="#FFFFFF" transform="translate(112.000000, 57.000000)">
                <polygon id="Path" points="17.74 144.58 17.74 63.57 0 53.33 0 154.76 0 154.77 87.77 205.43 87.77 184.7"></polygon>
                <polygon id="Path" points="87.77 163.95 87.77 104 35.74 73.96 35.74 134.15"></polygon>
                <polygon id="Path" points="89.35 20.55 159.49 60.97 177.21 50.74 89.35 0 1.49 50.73 19.27 60.99"></polygon>
                <polygon id="Path" points="141.48 71.37 89.36 41.33 37.27 71.38 89.35 101.45"></polygon>
                <polygon id="Path" points="90.77 164.06 143.02 134.14 143.02 113.66 107.01 134.15 107.01 113.44 161.02 82.7 161.02 144.58 90.77 184.79 90.77 205.53 178.7 154.78 178.7 154.78 178.7 154.77 178.7 53.35 90.77 104.1"></polygon>
                <polygon id="Path" points="89.35 103.18 89.35 103.19 89.35 103.19 89.35 103.19 89.35 103.18 89.35 103.18"></polygon>
            </g>
        </g>
    </g>
</svg>